<svg xmlns="http://www.w3.org/2000/svg" id="Capa_1" height="512" viewBox="0 0 512 512" width="512"><g><path d="m297.626 56.195h-83.252c-5.747 0-10.406-4.659-10.406-10.407v-35.381c-.001-5.748 4.659-10.407 10.406-10.407h83.252c5.747 0 10.407 4.659 10.407 10.407v35.382c0 5.747-4.66 10.406-10.407 10.406z" fill="#528fd8"></path><path d="m297.626 0h-31.22c5.747 0 10.407 4.659 10.407 10.407v35.382c0 5.747-4.659 10.407-10.407 10.407h31.22c5.747 0 10.407-4.659 10.407-10.407v-35.382c0-5.748-4.66-10.407-10.407-10.407z" fill="#0573ce"></path><path d="m412.098 218.537h4.163c5.747 0 10.406-4.659 10.406-10.406v-29.138c0-5.747-4.659-10.406-10.406-10.406h-4.163v-20.017c0-18.876-12.701-35.389-30.945-40.232l-78.912-20.95c-4.561-1.211-7.736-5.339-7.736-10.058v-21.135h-77.008v21.134c0 4.719-3.175 8.847-7.736 10.058l-78.912 20.95c-18.244 4.843-30.945 21.357-30.945 40.232v20.016h-4.164c-5.747 0-10.406 4.659-10.406 10.406v29.138c0 5.747 4.659 10.406 10.406 10.406h4.163v33.301l16.65 63.48-16.65 63.48v33.301h-4.163c-5.747 0-10.406 4.659-10.406 10.407v29.138c0 5.747 4.659 10.406 10.406 10.406h4.163v39.545c0 5.747 4.659 10.406 10.406 10.406h291.382c5.747 0 10.406-4.659 10.406-10.406v-39.545h4.163c5.747 0 10.406-4.659 10.406-10.406v-29.138c0-5.747-4.659-10.407-10.406-10.407h-4.163v-33.301l-16.65-63.48 16.65-63.48v-33.299z" fill="#99e6fc"></path><path d="m416.26 412.098h-4.163v-33.301l-16.65-63.48 16.65-63.48v-33.301h4.163c5.747 0 10.406-4.659 10.406-10.406v-29.138c0-5.747-4.659-10.406-10.406-10.406h-4.163v-20.016c0-18.876-12.701-35.389-30.945-40.232l-78.912-20.95c-4.561-1.211-7.736-5.339-7.736-10.058v-21.135h-33.301v33.943c0 9.438 6.351 17.694 15.472 20.116l94.385 25.058c4.561 1.211 7.736 5.339 7.736 10.058v23.215h4.163c5.747 0 10.406 4.659 10.406 10.406v29.138c0 5.747-4.659 10.406-10.406 10.406h-4.163v193.561h4.163c5.747 0 10.406 4.659 10.406 10.407v29.138c0 5.747-4.659 10.406-10.406 10.406h-4.163v39.545c0 5.747-4.659 10.406-10.406 10.406h33.301c5.747 0 10.406-4.659 10.406-10.406v-39.545h4.163c5.747 0 10.406-4.659 10.406-10.406v-29.138c.001-5.746-4.658-10.405-10.406-10.405z" fill="#62dbfb"></path><path d="m99.902 251.837h312.195v126.959h-312.195z" fill="#528fd8"></path><path d="m378.797 251.837h33.301v126.959h-33.301z" fill="#0573ce"></path><g><path d="m251.768 285.718c2.394-2.21 6.071-2.21 8.465 0 7.124 6.578 20.743 21.088 20.743 35.88 0 13.794-11.182 24.976-24.976 24.976s-24.976-11.182-24.976-24.976c0-14.792 13.619-29.302 20.744-35.88z" fill="#62dbfb"></path></g><g fill="#01d0fb"><path d="m99.902 153.585v15h-4.162-.001 320.522-.001-4.162v-15z"></path><path d="m99.902 397.098v15h-4.162-.003 320.526-.003-4.162v-15z"></path><path d="m99.902 218.537h312.195v15h-312.195z"></path><path d="m99.902 462.049h312.195v15h-312.195z"></path></g></g></svg>