<svg xmlns="http://www.w3.org/2000/svg" id="Capa_1" height="512" viewBox="0 0 512 512" width="512"><g><g><g fill="#fee45a"><path d="m374.711 403.5c.01.333.025.665.025 1 0 18.748-15.252 34-34 34h-169.473c-18.748 0-34-15.252-34-34 0-.335.016-.667.025-1h-91.961c44.415 62.342 117.295 103 199.673 103s155.258-40.658 199.673-103z"></path><path d="m467.343 158.5c-38.908-83.845-123.827-142-222.343-142s-183.435 58.155-222.343 142z"></path></g><g><path d="m215.521 129.032c1.271 0 2.479.55 3.313 1.508s1.213 2.23 1.038 3.489l-3.401 24.471h176.151c-32.538-46.548-86.52-77-147.623-77-47.006 0-89.797 18.026-121.857 47.532z" fill="#fedf30"></path></g></g><path d="m497 157.5h-473.876c-14.824 31.571-23.124 66.814-23.124 104 0 53.376 17.079 102.758 46.056 143h91.207c0-18.748 15.252-34 34-34h169.474c18.748 0 34 15.252 34 34h122.263c8.284 0 15-6.716 15-15v-217c0-8.284-6.716-15-15-15z" fill="#dcf5f8"></path><g><g><path d="m456.21 347.5h-228c-5.523 0-10-4.477-10-10v-20c0-5.523 4.477-10 10-10h228c5.523 0 10 4.477 10 10v20c0 5.523-4.477 10-10 10z" fill="#a6e7f0"></path></g><g><path d="m228.21 307.5c-5.523 0-10 4.477-10 10v20c0 5.523 4.477 10 10 10h190v-40z" fill="#2ed1e2"></path></g><path d="m251 337.5v-20c0-5.523 4.477-10 10-10h-32.789c-5.523 0-10 4.477-10 10v20c0 5.523 4.477 10 10 10h32.789c-5.523 0-10-4.477-10-10z" fill="#02c7dd"></path></g><g><g><g><path d="m87.612 312.375h108.481l24.77-178.208c.451-3.242-2.068-6.135-5.341-6.135h-147.339c-3.273 0-5.792 2.893-5.341 6.135z" fill="#a6e7f0"></path></g><g><path d="m87.612 312.375h42.085l-24.77-178.208c-.451-3.242 2.068-6.135 5.341-6.135h-42.085c-3.273 0-5.792 2.893-5.341 6.135z" fill="#6bd9e7"></path></g><g><path d="m196.093 312.375 16.029-115.32h-140.539l16.029 115.32z" fill="#2ed1e2"></path></g><path d="m129.558 311.375-15.89-114.32h-42.085l15.89 114.32z" fill="#02c7dd"></path><g><path d="m191.857 342.85 4.375-31.475h-108.759l4.375 31.475c.37 2.666 2.65 4.65 5.341 4.65h89.327c2.691 0 4.97-1.984 5.341-4.65z" fill="#a6e7f0"></path></g><path d="m133.933 342.85-4.375-31.475h-42.085l4.375 31.475c.37 2.666 2.65 4.65 5.341 4.65h42.085c-2.691 0-4.971-1.984-5.341-4.65z" fill="#6bd9e7"></path><g><path d="m138.996 7.215-28.726 53.974c-12.683 23.83 4.587 52.587 31.583 52.587 26.996 0 44.266-28.756 31.583-52.587l-28.728-53.974c-1.217-2.287-4.495-2.287-5.712 0z" fill="#2ed1e2"></path></g></g><g><g><circle cx="205.917" cy="227.583" fill="#00f2a6" r="55.083"></circle></g><g><path d="m183.961 227.583c0-24.649 16.193-45.513 38.519-52.544-5.228-1.647-10.791-2.538-16.563-2.538-30.421 0-55.083 24.661-55.083 55.083 0 30.421 24.661 55.083 55.083 55.083 5.772 0 11.335-.892 16.563-2.538-22.326-7.033-38.519-27.897-38.519-52.546z" fill="#05e39c"></path></g><g><path d="m200.91 256.158c-2.044 0-3.999-.834-5.413-2.309l-24.033-25.059c-1.147-1.196-1.107-3.095.089-4.242l6.496-6.23c1.196-1.147 3.095-1.107 4.242.089l18.575 19.368 30.679-32.527c1.137-1.205 3.036-1.261 4.241-.124l6.547 6.175c1.205 1.137 1.261 3.036.124 4.241l-36.111 38.286c-1.403 1.488-3.358 2.331-5.403 2.331h-.033z" fill="#fff"></path></g></g><g><path d="m173.435 61.189-28.727-53.974c-1.217-2.287-4.495-2.287-5.712 0l-22.905 43.035c6.534.65 15.912 3.49 27.918 11.994 11.351 8.04 22.287 6.539 30.989 2.319-.463-1.132-.97-2.26-1.563-3.374z" fill="#02c7dd"></path></g></g><g><g><path d="m463.21 208h-51.309c-1.657 0-3-1.343-3-3v-9c0-1.657 1.343-3 3-3h51.309c1.657 0 3 1.343 3 3v9c0 1.657-1.343 3-3 3z" fill="#8379c1"></path></g><g><path d="m394.901 208h-117c-1.657 0-3-1.343-3-3v-9c0-1.657 1.343-3 3-3h117c1.657 0 3 1.343 3 3v9c0 1.657-1.343 3-3 3z" fill="#978ecb"></path></g><g><path d="m463.21 241h-136.309c-1.657 0-3-1.343-3-3v-9c0-1.657 1.343-3 3-3h136.309c1.657 0 3 1.343 3 3v9c0 1.657-1.343 3-3 3z" fill="#8379c1"></path></g><g><path d="m308.901 241h-31c-1.657 0-3-1.343-3-3v-9c0-1.657 1.343-3 3-3h31c1.657 0 3 1.343 3 3v9c0 1.657-1.343 3-3 3z" fill="#8379c1"></path></g><g><path d="m463.21 274h-185.309c-1.657 0-3-1.343-3-3v-9c0-1.657 1.343-3 3-3h185.309c1.657 0 3 1.343 3 3v9c0 1.657-1.343 3-3 3z" fill="#978ecb"></path></g></g><g><g><path d="m340.737 439.5h-169.474c-19.33 0-35-15.67-35-35 0-19.33 15.67-35 35-35h169.474c19.33 0 35 15.67 35 35 0 19.33-15.67 35-35 35z" fill="#978ecb"></path></g><path d="m195.526 404.5c0-19.33 15.67-35 35-35h-59.263c-19.33 0-35 15.67-35 35 0 19.33 15.67 35 35 35h59.263c-19.33 0-35-15.67-35-35z" fill="#8379c1"></path><g><path d="m330 412h-148c-1.657 0-3-1.343-3-3v-9c0-1.657 1.343-3 3-3h148c1.657 0 3 1.343 3 3v9c0 1.657-1.343 3-3 3z" fill="#fff"></path></g></g></g></svg>