<svg xmlns="http://www.w3.org/2000/svg" id="Capa_1" height="512" viewBox="0 0 512 512" width="512"><g><path d="m316.184 207h-120.38c-11.603 0-18.83-12.667-12.9-22.65 16.186-27.283 23.04-84.147 19.52-115.59l-1.34-12.11c-.984-8.872 5.961-16.65 14.91-16.65h80c8.925 0 15.896 7.757 14.91 16.65l-1.34 12.1c-3.49 31.33 3.45 88.5 19.52 115.6 5.925 9.974-1.288 22.65-12.9 22.65z" fill="#f9f9f9"></path><path d="m316.184 207h-60.19v-167h40c8.925 0 15.896 7.757 14.91 16.65l-1.34 12.1c-3.49 31.33 3.45 88.5 19.52 115.6 5.925 9.974-1.288 22.65-12.9 22.65z" fill="#e2dff4"></path><path d="m322.284 512h-132.58c-29.013 0-50.335-27.006-43.85-55.12l8.13-36.23c4.46-19.31 4.97-38.9 1.55-58.32l-6.8-38.51c-8.11-45.97 2.05-92.43 28.62-130.81 3.5-5.06 6.81-10.56 9.62-16.01h138.04c2.81 5.45 6.12 10.95 9.62 16.01 20.48 29.57 31.3 64.23 31.3 100.22 0 47.014-19.695 76.488-7.95 127.33l8.17 36.41c6.458 27.988-14.855 55.03-43.87 55.03z" fill="#ff6378"></path><path d="m322.284 512h-66.29v-335h69.02c2.81 5.45 6.12 10.95 9.62 16.01 20.48 29.57 31.3 64.23 31.3 100.22 0 47.014-19.695 76.488-7.95 127.33l8.17 36.41c6.458 27.988-14.855 55.03-43.87 55.03z" fill="#ff1f3d"></path><path d="m326.994 30v3c0 16.54-13.46 30-30 30h-82c-16.54 0-30-13.46-30-30v-3c0-16.54 13.46-30 30-30h82c16.54 0 30 13.46 30 30z" fill="#ffe278"></path><path d="m296.994 63h-41v-63h41c16.54 0 30 13.46 30 30v3c0 16.54-13.46 30-30 30z" fill="#ffb454"></path><path d="m223.994 287c-3.976 0-7.829-1.615-10.61-4.4-8.875-8.875-3.532-24.191 9.13-25.53 9.067-.831 16.48 6.288 16.48 14.931 0 8.151-6.633 14.999-15 14.999z" fill="#ffe278"></path><path d="m287.994 335c-8.241 0-15-6.734-15-15 0-8.606 7.373-15.766 16.48-14.931 8.423.891 14.275 8.377 13.45 16.41-.802 7.74-7.315 13.521-14.93 13.521z" fill="#ffb454"></path><circle cx="255.994" cy="400" fill="#ffe278" r="15"></circle><path d="m270.994 400c0 8.223-6.714 15-15 15v-30c8.233 0 15 6.683 15 15z" fill="#ffb454"></path></g></svg>