<svg xmlns="http://www.w3.org/2000/svg" clip-rule="evenodd" fill-rule="evenodd" height="173.397mm" viewBox="0 0 173.397 173.397" width="173.397mm"><g id="Layer_x0020_1"><g id="_596947272"><g fill-rule="nonzero"><path id="_596951184" d="m53.828 49.3457c0-.8251-.669-1.4941-1.4941-1.4941-3.8626 0-3.608 0-7.4706 0-.8251 0-1.4941.669-1.4941 1.4941v7.4705c0 .8251.669 1.4942 1.4941 1.4942h7.4706c.8251 0 1.4941-.6691 1.4941-1.4942z" fill="#ff9d05"></path><path id="_596951424" d="m81.4692 104.628h-46.3177c-6.8075 0-12.9707-2.7595-17.4321-7.2208-4.4612-4.4613-7.2208-10.6247-7.2208-17.4321 0-6.8075 2.7596-12.9709 7.2208-17.4322 4.4614-4.4613 10.6246-7.2208 17.4321-7.2208h46.3177c6.8075 0 12.9708 2.7596 17.4321 7.2208 4.4613 4.4613 7.2209 10.6247 7.2209 17.4322 0 6.8074-2.7596 12.9708-7.2209 17.4321-4.4613 4.4612-10.6246 7.2208-17.4321 7.2208z" fill="#ffc107"></path><g fill="#ffdf7b"><path id="_596951136" d="m31.4162 104.347c-1.0178-.1548-2.0153-.3717-2.9882-.647v-47.4495c.9729-.2753 1.9704-.4922 2.9882-.647z"></path><path id="_596950584" d="m37.3927 104.628h-2.2412c-.25 0-.4989-.0042-.7471-.0116v-49.2827c.2482-.0074.4971-.0116.7471-.0116h2.2412z"></path></g><g fill="#ffdf7b"><path id="_596950080" d="m77.7339 104.628h-2.9883v-49.3059h2.9883z"></path><path id="_596950656" d="m86.6986 55.8781c1.021.2206 2.0186.5043 2.9883.8471v46.4997c-.9697.3428-1.9673.6265-2.9883.8471z"></path></g><path id="_596950344" d="m76.2398 62.7927c-.8251 0-1.4942.669-1.4942 1.4941 0 .8252.6691 1.4942 1.4942 1.4942h11.9529c.8252 0 1.4942-.669 1.4942-1.4942 0-.8251-.669-1.4941-1.4942-1.4941z" fill="#ffdf7b"></path><path id="_596950632" d="m76.2398 70.2633c-.8251 0-1.4942.669-1.4942 1.4942 0 .8251.6691 1.4941 1.4942 1.4941h11.9529c.8252 0 1.4942-.669 1.4942-1.4941 0-.8252-.669-1.4942-1.4942-1.4942z" fill="#ffdf7b"></path><path id="_596950536" d="m76.2398 77.7338c-.8251 0-1.4942.6691-1.4942 1.4942s.6691 1.4941 1.4942 1.4941h11.9529c.8252 0 1.4942-.669 1.4942-1.4941s-.669-1.4942-1.4942-1.4942z" fill="#ffdf7b"></path><path id="_596950416" d="m76.2398 86.6986c-.8251 0-1.4942.669-1.4942 1.4941 0 .8252.6691 1.4942 1.4942 1.4942h11.9529c.8252 0 1.4942-.669 1.4942-1.4942 0-.8251-.669-1.4941-1.4942-1.4941z" fill="#ffdf7b"></path><path id="_596949576" d="m76.2398 94.1691c-.8251 0-1.4942.6691-1.4942 1.4942s.6691 1.4941 1.4942 1.4941h11.9529c.8252 0 1.4942-.669 1.4942-1.4941s-.669-1.4942-1.4942-1.4942z" fill="#ffdf7b"></path><path id="_596949816" d="m46.7023 82.5611c0-5.3455 8.968-14.7496 9.0331-14.818l-.0028-.0026c.568-.5984 1.5138-.623 2.1123-.0549.0465.0441.0895.0905.1291.1389.8756.9314 8.9562 9.6623 8.9562 14.7366 0 2.7925-1.1322 5.3211-2.9625 7.1514-1.8303 1.8304-4.3589 2.9626-7.1515 2.9626-2.7925 0-5.3212-1.1321-7.1515-2.9625s-2.9624-4.3589-2.9624-7.1515z" fill="#7baff2"></path><path id="_596949744" d="m41.8751 47.8516c-.8252 0-1.4942.669-1.4942 1.4941s.669 1.4941 1.4942 1.4941h13.4471c.8251 0 1.4941-.669 1.4941-1.4941s-.669-1.4941-1.4941-1.4941z" fill="#ffc107"></path><path id="_596949936" d="m112.099 103.134c0-.8251-.6691-1.4942-1.4942-1.4942h-41.7138-8.0254-48.8726c-.8251 0-1.4941.6691-1.4941 1.4942v7.4049c0 2.0813.8434 3.9653 2.2072 5.3291 1.3637 1.3638 3.2478 2.2072 5.3292 2.2072h42.8303 5.1698 44.5694c.8251 0 1.4942-.669 1.4942-1.4941 0-4.457 0-9.3341 0-13.4471z" fill="#cfd7db"></path><path id="_596949312" d="m38.3739 105.141c2.1632 2.163 3.5012 5.1514 3.5012 8.4518 0 3.3006-1.338 6.2888-3.5012 8.4518-2.163 2.1632-5.1514 3.5011-8.4518 3.5011-3.3006 0-6.2888-1.3379-8.4518-3.5011-2.1632-2.163-3.5012-5.1512-3.5012-8.4518 0-3.3004 1.338-6.2888 3.5012-8.4518 2.163-2.1632 5.1512-3.5012 8.4518-3.5012 3.3004 0 6.2888 1.338 8.4518 3.5012z" fill="#333e48"></path><path id="_596949432" d="m38.9851 105.8c1.8011 2.0925 2.89 4.8158 2.89 7.7929 0 2.9773-1.0889 5.7003-2.89 7.7929-1.5118-2.2957-2.3307-4.9938-2.3307-7.7929s.8189-5.4972 2.3307-7.7929z" fill="#2e3841"></path><path id="_596948448" d="m34.148 109.367c1.0815 1.0816 1.7506 2.5758 1.7506 4.2259s-.6691 3.1443-1.7506 4.2259c-1.0816 1.0815-2.5758 1.7506-4.2259 1.7506s-3.1443-.6691-4.2259-1.7506c-1.0816-1.0816-1.7506-2.5758-1.7506-4.2259s.669-3.1443 1.7506-4.2259 2.5758-1.7506 4.2259-1.7506 3.1443.669 4.2259 1.7506z" fill="#fff"></path><path id="_596949096" d="m59.2916 105.141c2.1632 2.163 3.5012 5.1514 3.5012 8.4518 0 3.3006-1.338 6.2888-3.5012 8.4518-2.1629 2.1632-5.1514 3.5011-8.4518 3.5011-3.3005 0-6.2888-1.3379-8.4518-3.5011-2.1632-2.163-3.5011-5.1512-3.5011-8.4518 0-3.3004 1.3379-6.2888 3.5011-8.4518 2.163-2.1632 5.1513-3.5012 8.4518-3.5012 3.3004 0 6.2889 1.338 8.4518 3.5012z" fill="#333e48"></path><path id="_596948880" d="m55.0657 109.367c1.0816 1.0816 1.7506 2.5758 1.7506 4.2259s-.669 3.1443-1.7506 4.2259c-1.0816 1.0815-2.5758 1.7506-4.2259 1.7506-1.65 0-3.1443-.6691-4.2259-1.7506-1.0815-1.0816-1.7506-2.5758-1.7506-4.2259s.6691-3.1443 1.7506-4.2259c1.0816-1.0816 2.5759-1.7506 4.2259-1.7506 1.6501 0 3.1443.669 4.2259 1.7506z" fill="#fff"></path><path id="_596949168" d="m116.581 118.075h-5.9765c-.8251 0-1.4941-.669-1.4941-1.4941v-47.8117c0-.8251.669-1.4942 1.4941-1.4942h5.9765c.8251 0 1.4941.6691 1.4941 1.4942v47.8117c0 .8251-.669 1.4941-1.4941 1.4941z" fill="#e24b45"></path><path id="_596949000" d="m149.018 118.075h2.3313 4.0126c2.0633 0 3.9356-.8336 5.2999-2.1838 1.3394-1.3256 2.1824-3.1552 2.2261-5.1857.0017-.027.0029-.0559.0039-.0862h.0034v-.0012l.002.0001c.0007-.0213.0007-.0424.0005-.0635h.0005v-.016h.0001v-14.8755c0-9.9317-4.0262-18.9245-10.5357-25.434-6.509-6.509-15.5013-10.5355-25.4337-10.5355v.0059l-10.3482.0001v-.0058c-.8251 0-1.4941.669-1.4941 1.4941v49.4164 5.9765c0 .8251.669 1.4941 1.4941 1.4941z" fill="#ef5350"></path><path id="_596948160" d="m162.729 112.099c.0945-.4506.1488-.9163.1591-1.393.0017-.027.0029-.0559.0039-.0862h.0034v-.0012l.002.0001c.0007-.0213.0007-.0424.0005-.0635h.0005v-.016h.0001v-1.4284h-47.8117v1.4941 1.4941z" fill="#f27472"></path><path id="_596948400" d="m162.899 95.6634v-.0001c0-9.9317-4.0262-18.9245-10.5357-25.434-.5018-.5018-1.0183-.9886-1.5488-1.4601h-13.3155c-3.713 0-7.0747 1.5052-9.5083 3.9387-2.4335 2.4335-3.9388 5.7953-3.9388 9.5084 0 3.713 1.5053 7.0748 3.9388 9.5083 2.4336 2.4335 5.7953 3.9388 9.5083 3.9388z" fill="#62dbfb"></path><g fill="#8de5fb"><path id="_596947992" d="m150.245 68.7692h-6.4445l-14.0924 24.4086c1.5162 1.0795 3.2657 1.8521 5.1583 2.2278z"></path><path id="_596948352" d="m155.651 74.0093c-.7272-.9629-1.5017-1.8882-2.3199-2.7724l-14.1027 24.4265h3.9206z"></path></g><path id="_596948280" d="m147.445 105.141c2.1632 2.163 3.5011 5.1514 3.5011 8.4518 0 3.3006-1.3379 6.2888-3.5011 8.4518-2.163 2.1632-5.1513 3.5011-8.4518 3.5011-3.3004 0-6.2889-1.3379-8.4519-3.5011-2.1631-2.163-3.5011-5.1512-3.5011-8.4518 0-3.3004 1.338-6.2888 3.5011-8.4518 2.163-2.1632 5.1515-3.5012 8.4519-3.5012 3.3005 0 6.2888 1.338 8.4518 3.5012z" fill="#333e48"></path><path id="_596948256" d="m143.219 109.367c1.0815 1.0816 1.7506 2.5758 1.7506 4.2259s-.6691 3.1443-1.7506 4.2259c-1.0816 1.0815-2.5759 1.7506-4.2259 1.7506-1.6501 0-3.1443-.6691-4.2259-1.7506-1.0816-1.0816-1.7506-2.5758-1.7506-4.2259s.669-3.1443 1.7506-4.2259 2.5758-1.7506 4.2259-1.7506c1.65 0 3.1443.669 4.2259 1.7506z" fill="#fff"></path></g><path id="_596947296" d="m56.8162 92.6751c1.9177 0 3.7108-.534 5.239-1.4612-.784.195-1.6042.2985-2.4485.2985-2.7924 0-5.3211-1.1321-7.1515-2.9625-1.8303-1.8304-2.9624-4.3589-2.9624-7.1515 0-4.3339 5.8949-11.3357 8.1607-13.8669-.5944-.4032-1.4103-.329-1.9209.209l.0028.0026c-.0651.0684-9.0331 9.4725-9.0331 14.818 0 2.7926 1.1321 5.3211 2.9624 7.1515s4.359 2.9625 7.1515 2.9625z" fill="#6fa3e9"></path></g></g></svg>