<svg xmlns="http://www.w3.org/2000/svg" xmlns:xlink="http://www.w3.org/1999/xlink" id="_20_Water_Quality" viewBox="0 0 512 512"><linearGradient id="lg1"><stop offset="0" stop-color="#a8d3d8"></stop><stop offset="1" stop-color="#7ca1b1"></stop></linearGradient><linearGradient id="SVGID_1_" gradientTransform="matrix(1 0 0 -1 0 514)" gradientUnits="userSpaceOnUse" x1="241.854" x2="335.953" xlink:href="#lg1" y1="365.549" y2="212.994"></linearGradient><linearGradient id="lg2"><stop offset="0" stop-color="#596c76" stop-opacity="0"></stop><stop offset=".1821" stop-color="#596c76" stop-opacity=".035"></stop><stop offset=".3669" stop-color="#596c76" stop-opacity=".138"></stop><stop offset=".553" stop-color="#596c76" stop-opacity=".31"></stop><stop offset=".7401" stop-color="#596c76" stop-opacity=".552"></stop><stop offset=".9262" stop-color="#596c76" stop-opacity=".859"></stop><stop offset="1" stop-color="#596c76"></stop></linearGradient><linearGradient id="SVGID_00000112605734750682386020000015566694897501863848_" gradientTransform="matrix(1 0 0 -1 0 514)" gradientUnits="userSpaceOnUse" x1="391.416" x2="404.723" xlink:href="#lg2" y1="330.226" y2="330.226"></linearGradient><linearGradient id="SVGID_00000071523760772085041980000001981244041361349259_" gradientTransform="matrix(1 0 0 -1 0 514)" gradientUnits="userSpaceOnUse" x1="397.68" x2="397.68" xlink:href="#lg2" y1="317.931" y2="295.074"></linearGradient><linearGradient id="SVGID_00000005252745194498664230000003397333936543795389_" gradientTransform="matrix(1 0 0 -1 0 514)" gradientUnits="userSpaceOnUse" x1="215.659" x2="215.659" xlink:href="#lg2" y1="231.079" y2="207.911"></linearGradient><linearGradient id="SVGID_00000131333831615778153570000001681296072242245026_" gradientTransform="matrix(1 0 0 -1 0 514)" gradientUnits="userSpaceOnUse" x1="165.259" x2="162.764" xlink:href="#lg2" y1="245.753" y2="258.228"></linearGradient><linearGradient id="SVGID_00000070820819282274580360000014454719450603983756_" gradientTransform="matrix(1 0 0 -1 0 514)" gradientUnits="userSpaceOnUse" x1="386.188" x2="405.881" xlink:href="#lg1" y1="214.174" y2="214.174"></linearGradient><linearGradient id="SVGID_00000090293640235241171690000001572124784337958072_" gradientTransform="matrix(1 0 0 -1 0 514)" gradientUnits="userSpaceOnUse" x1="405.198" x2="382.342" xlink:href="#lg1" y1="214.174" y2="214.174"></linearGradient><linearGradient id="SVGID_00000085229512543396678220000000726114755650478508_" gradientTransform="matrix(1 0 0 -1 0 514)" gradientUnits="userSpaceOnUse" x1="399.02" x2="415.822" xlink:href="#lg2" y1="214.174" y2="214.174"></linearGradient><linearGradient id="SVGID_00000017491997311359255400000013502739465351560350_" gradientTransform="matrix(1 0 0 -1 0 514)" gradientUnits="userSpaceOnUse" x1="145.238" x2="166.235" xlink:href="#lg1" y1="268.142" y2="268.142"></linearGradient><linearGradient id="SVGID_00000103962465285139338660000015867637236067866496_" gradientTransform="matrix(1 0 0 -1 0 514)" gradientUnits="userSpaceOnUse" x1="154.505" x2="173.04" xlink:href="#lg2" y1="268.142" y2="268.142"></linearGradient><linearGradient id="SVGID_00000047765753035696803290000001318516720964504997_" gradientTransform="matrix(1 0 0 -1 0 514)" gradientUnits="userSpaceOnUse" x1="156.348" x2="156.348" xlink:href="#lg2" y1="260.426" y2="253.281"></linearGradient><linearGradient id="SVGID_00000133526110724326573690000010543902778909448380_" gradientTransform="matrix(1 0 0 -1 0 514)" gradientUnits="userSpaceOnUse" x1="156.348" x2="156.348" xlink:href="#lg2" y1="261.139" y2="270.75"></linearGradient><linearGradient id="SVGID_00000003824604856596438130000004389422173518370692_" gradientTransform="matrix(1 0 0 -1 0 514)" gradientUnits="userSpaceOnUse" x1="85.882" x2="244.139" xlink:href="#lg1" y1="457.466" y2="308.475"></linearGradient><linearGradient id="SVGID_00000119090537041140860410000006537649918468282273_" gradientTransform="matrix(1 0 0 -1 0 514)" gradientUnits="userSpaceOnUse" x1="218.426" x2="257.504" xlink:href="#lg2" y1="391.126" y2="391.126"></linearGradient><linearGradient id="SVGID_00000054253946822921151350000012670151832805215912_" gradientTransform="matrix(1 0 0 -1 0 514)" gradientUnits="userSpaceOnUse" x1="156.348" x2="156.348" xlink:href="#lg2" y1="291.317" y2="267.749"></linearGradient><linearGradient id="SVGID_00000172414644897828734670000004948624431318631579_" gradientTransform="matrix(1 0 0 -1 0 514)" gradientUnits="userSpaceOnUse" x1="143.051" x2="177.981" y1="487.8" y2="380.157"><stop offset="0" stop-color="#bbec6c"></stop><stop offset="1" stop-color="#78a91f"></stop></linearGradient><linearGradient id="lg3"><stop offset="0" stop-color="#017b4e" stop-opacity="0"></stop><stop offset=".2233" stop-color="#017a4d" stop-opacity=".033"></stop><stop offset=".4141" stop-color="#01784c" stop-opacity=".134"></stop><stop offset=".5931" stop-color="#01754a" stop-opacity=".303"></stop><stop offset=".7648" stop-color="#017046" stop-opacity=".542"></stop><stop offset=".9298" stop-color="#016a42" stop-opacity=".847"></stop><stop offset="1" stop-color="#026841"></stop></linearGradient><linearGradient id="SVGID_00000003783344089037588720000006027329795391197083_" gradientTransform="matrix(1 0 0 -1 0 514)" gradientUnits="userSpaceOnUse" x1="156.348" x2="156.348" xlink:href="#lg3" y1="479.515" y2="498.135"></linearGradient><linearGradient id="SVGID_00000144335228360056243950000012843589056888460932_" gradientTransform="matrix(1 0 0 -1 0 514)" gradientUnits="userSpaceOnUse" x1="182.132" x2="164.547" xlink:href="#lg3" y1="422.008" y2="438.166"></linearGradient><linearGradient id="SVGID_00000115474468936845074830000011559890197977118640_" gradientTransform="matrix(1 0 0 -1 0 514)" gradientUnits="userSpaceOnUse" x1="166.941" x2="161.001" xlink:href="#lg3" y1="470.086" y2="466.284"></linearGradient><linearGradient id="SVGID_00000035517118310461044740000008236020299489128115_" gradientTransform="matrix(1 0 0 -1 0 514)" gradientUnits="userSpaceOnUse" x1="95.812" x2="73.964" xlink:href="#lg3" y1="446.824" y2="446.824"></linearGradient><linearGradient id="lg4"><stop offset="0" stop-color="#fef0ae"></stop><stop offset="1" stop-color="#fac600"></stop></linearGradient><linearGradient id="SVGID_00000113342149991429694080000007289464270385491359_" gradientTransform="matrix(.707 .707 .707 -.707 -294.611 329.766)" gradientUnits="userSpaceOnUse" x1="203.555" x2="239.545" xlink:href="#lg4" y1="434.196" y2="398.207"></linearGradient><linearGradient id="lg5"><stop offset="0" stop-color="#fe9738" stop-opacity="0"></stop><stop offset=".1025" stop-color="#fe9636" stop-opacity=".02"></stop><stop offset=".2265" stop-color="#fe9433" stop-opacity=".078"></stop><stop offset=".3615" stop-color="#fe912e" stop-opacity=".175"></stop><stop offset=".5046" stop-color="#fe8d26" stop-opacity=".31"></stop><stop offset=".6539" stop-color="#fe871d" stop-opacity=".483"></stop><stop offset=".8085" stop-color="#fe8011" stop-opacity=".695"></stop><stop offset=".9645" stop-color="#fe7804" stop-opacity=".94"></stop><stop offset="1" stop-color="#fe7701"></stop></linearGradient><linearGradient id="SVGID_00000052822183655824849170000015340625448090955648_" gradientTransform="matrix(.707 .707 .707 -.707 -294.611 329.766)" gradientUnits="userSpaceOnUse" x1="220.907" x2="220.907" xlink:href="#lg5" y1="411.675" y2="384.493"></linearGradient><linearGradient id="SVGID_00000100358012141581075170000013503629063141697983_" gradientTransform="matrix(.707 .707 .707 -.707 -294.611 329.766)" gradientUnits="userSpaceOnUse" x1="225.963" x2="253.181" xlink:href="#lg5" y1="416.845" y2="416.845"></linearGradient><linearGradient id="lg6"><stop offset="0" stop-color="#fac600" stop-opacity="0"></stop><stop offset="1" stop-color="#fef0ae"></stop></linearGradient><linearGradient id="SVGID_00000137811090948616831330000014504638000465294727_" gradientTransform="matrix(.707 .707 .707 -.707 -294.611 329.766)" gradientUnits="userSpaceOnUse" x1="233.159" x2="246.141" xlink:href="#lg6" y1="404.593" y2="391.611"></linearGradient><linearGradient id="SVGID_00000103986815495154632750000014176259541151116449_" gradientTransform="matrix(1 0 0 -1 0 514)" gradientUnits="userSpaceOnUse" x1="172.11" x2="161.424" xlink:href="#lg5" y1="307.021" y2="317.707"></linearGradient><linearGradient id="SVGID_00000177468567977936279370000003734464913937458348_" gradientTransform="matrix(.707 .707 .707 -.707 -294.611 329.766)" gradientUnits="userSpaceOnUse" x1="217.082" x2="234.305" xlink:href="#lg4" y1="416.845" y2="416.845"></linearGradient><linearGradient id="lg7"><stop offset="0" stop-color="#99e6fc"></stop><stop offset=".1325" stop-color="#8ee1fb"></stop><stop offset=".3627" stop-color="#71d5f9"></stop><stop offset=".6631" stop-color="#43c2f5"></stop><stop offset="1" stop-color="#08a9f1"></stop></linearGradient><linearGradient id="SVGID_00000067213507261670084650000013398129887504609161_" gradientTransform="matrix(1 0 0 -1 0 514)" gradientUnits="userSpaceOnUse" x1="140.188" x2="172.006" xlink:href="#lg7" y1="453.501" y2="418.225"></linearGradient><linearGradient id="lg8"><stop offset="0" stop-color="#0593fc" stop-opacity="0"></stop><stop offset=".1006" stop-color="#0492fc" stop-opacity=".021"></stop><stop offset=".2252" stop-color="#0491fc" stop-opacity=".082"></stop><stop offset=".3626" stop-color="#048ffc" stop-opacity=".182"></stop><stop offset=".5092" stop-color="#038dfc" stop-opacity=".322"></stop><stop offset=".6631" stop-color="#028afc" stop-opacity=".501"></stop><stop offset=".8232" stop-color="#0286fc" stop-opacity=".721"></stop><stop offset=".9854" stop-color="#0182fc" stop-opacity=".976"></stop><stop offset="1" stop-color="#0182fc"></stop></linearGradient><linearGradient id="SVGID_00000123404161046508194680000018039321235240955054_" gradientTransform="matrix(1 0 0 -1 0 514)" gradientUnits="userSpaceOnUse" x1="151.89" x2="151.89" xlink:href="#lg8" y1="438.036" y2="409.065"></linearGradient><linearGradient id="SVGID_00000025438914742639144270000012334743715388716188_" gradientTransform="matrix(1 0 0 -1 0 514)" gradientUnits="userSpaceOnUse" x1="160.958" x2="181.833" xlink:href="#lg8" y1="447.064" y2="447.628"></linearGradient><linearGradient id="lg9"><stop offset="0" stop-color="#99e6fc" stop-opacity="0"></stop><stop offset=".165" stop-color="#99e6fc" stop-opacity=".013"></stop><stop offset=".2963" stop-color="#99e6fc" stop-opacity=".052"></stop><stop offset=".416" stop-color="#99e6fc" stop-opacity=".119"></stop><stop offset=".5289" stop-color="#99e6fc" stop-opacity=".213"></stop><stop offset=".637" stop-color="#99e6fc" stop-opacity=".334"></stop><stop offset=".7415" stop-color="#99e6fc" stop-opacity=".484"></stop><stop offset=".843" stop-color="#99e6fc" stop-opacity=".661"></stop><stop offset=".9398" stop-color="#99e6fc" stop-opacity=".86"></stop><stop offset="1" stop-color="#99e6fc"></stop></linearGradient><linearGradient id="SVGID_00000025432500862361069170000010332337247485715868_" gradientTransform="matrix(1 0 0 -1 0 514)" gradientUnits="userSpaceOnUse" x1="161.47" x2="173.882" xlink:href="#lg9" y1="427.618" y2="412.385"></linearGradient><linearGradient id="SVGID_00000160149462365346337080000010845306911207376519_" gradientTransform="matrix(1 0 0 -1 0 514)" gradientUnits="userSpaceOnUse" x1="177.012" x2="165.819" xlink:href="#lg8" y1="425.447" y2="436.64"></linearGradient><linearGradient id="SVGID_00000034780565577743440250000004696326267233249683_" gradientTransform="matrix(1 0 0 -1 0 514)" gradientUnits="userSpaceOnUse" x1="158.223" x2="173.193" y1="458.778" y2="438.818"><stop offset="0" stop-color="#fffaf8"></stop><stop offset="1" stop-color="#fff5c6"></stop></linearGradient><linearGradient id="lg10"><stop offset="0" stop-color="#fd4755"></stop><stop offset="1" stop-color="#d2024e"></stop></linearGradient><linearGradient id="SVGID_00000134938202419415021500000004277383561360510352_" gradientTransform="matrix(1 0 0 -1 0 514)" gradientUnits="userSpaceOnUse" x1="93.658" x2="96.272" xlink:href="#lg10" y1="381.098" y2="367.554"></linearGradient><linearGradient id="SVGID_00000125590304342413783950000010281964105321959822_" gradientTransform="matrix(1 0 0 -1 0 514)" gradientUnits="userSpaceOnUse" x1="155.285" x2="157.899" xlink:href="#lg10" y1="381.437" y2="368.368"></linearGradient><linearGradient id="SVGID_00000103241822280116355940000011775922966760039074_" gradientTransform="matrix(1 0 0 -1 0 514)" gradientUnits="userSpaceOnUse" x1="216.436" x2="219.288" xlink:href="#lg10" y1="383.239" y2="370.882"></linearGradient><linearGradient id="SVGID_00000074434696976525251790000004628320409563463357_" gradientTransform="matrix(1 0 0 -1 -1.624 563.558)" gradientUnits="userSpaceOnUse" x1="214.529" x2="230.9" xlink:href="#lg4" y1="362.753" y2="346.381"></linearGradient><linearGradient id="SVGID_00000093896311674728837170000005590226880253342092_" gradientTransform="matrix(1 0 0 -1 -1.624 563.558)" gradientUnits="userSpaceOnUse" x1="222.423" x2="222.423" xlink:href="#lg5" y1="352.507" y2="340.143"></linearGradient><linearGradient id="SVGID_00000134236994128407088570000009709105075099827634_" gradientTransform="matrix(1 0 0 -1 -1.624 563.558)" gradientUnits="userSpaceOnUse" x1="224.722" x2="237.104" xlink:href="#lg5" y1="354.859" y2="354.859"></linearGradient><linearGradient id="SVGID_00000119831993824438185640000002460973957367526793_" gradientTransform="matrix(1 0 0 -1 -1.624 563.558)" gradientUnits="userSpaceOnUse" x1="227.996" x2="233.901" xlink:href="#lg6" y1="349.286" y2="343.38"></linearGradient><linearGradient id="SVGID_00000111878785414038230700000012623523343652542641_" gradientTransform="matrix(1 0 0 -1 -1.624 563.558)" gradientUnits="userSpaceOnUse" x1="85.627" x2="101.998" xlink:href="#lg4" y1="362.753" y2="346.381"></linearGradient><linearGradient id="SVGID_00000144305210564171075500000016156504940470793111_" gradientTransform="matrix(1 0 0 -1 -1.624 563.558)" gradientUnits="userSpaceOnUse" x1="93.521" x2="93.521" xlink:href="#lg5" y1="352.507" y2="340.143"></linearGradient><linearGradient id="SVGID_00000029008620421730289160000016692952442871568544_" gradientTransform="matrix(1 0 0 -1 -1.624 563.558)" gradientUnits="userSpaceOnUse" x1="95.82" x2="108.202" xlink:href="#lg5" y1="354.859" y2="354.859"></linearGradient><linearGradient id="SVGID_00000000195566391538181580000001983827380073890488_" gradientTransform="matrix(1 0 0 -1 -1.624 563.558)" gradientUnits="userSpaceOnUse" x1="99.094" x2="104.999" xlink:href="#lg6" y1="349.286" y2="343.38"></linearGradient><linearGradient id="SVGID_00000116954789404089672660000015094187517035956384_" gradientTransform="matrix(1 0 0 -1 0 514)" gradientUnits="userSpaceOnUse" x1="249.616" x2="259.239" xlink:href="#lg7" y1="218.62" y2="16.521"></linearGradient><linearGradient id="SVGID_00000096743881498253999380000000611959199677905294_" gradientTransform="matrix(1 0 0 -1 0 514)" gradientUnits="userSpaceOnUse" x1="257.494" x2="260.345" xlink:href="#lg9" y1="93.387" y2="143.288"></linearGradient><linearGradient id="SVGID_00000068678383519844673770000017640898457647695267_" gradientTransform="matrix(-1 0 0 -1 -3842 514)" gradientUnits="userSpaceOnUse" x1="-4096.9" x2="-4094.77" xlink:href="#lg9" y1="66.817" y2="104.097"></linearGradient><linearGradient id="SVGID_00000039813172384959211170000013217099674016677529_" gradientTransform="matrix(1 0 0 -1 0 514)" gradientUnits="userSpaceOnUse" x1="256" x2="256" xlink:href="#lg8" y1="30.01" y2="7.187"></linearGradient><linearGradient id="SVGID_00000123438323770332492590000013576296851203854777_" gradientTransform="matrix(1 0 0 -1 0 514)" gradientUnits="userSpaceOnUse" x1="484.406" x2="510.423" xlink:href="#lg8" y1="85.76" y2="85.76"></linearGradient><linearGradient id="SVGID_00000009581526596817782220000015156597424291675796_" gradientTransform="matrix(1 0 0 -1 0 514)" gradientUnits="userSpaceOnUse" x1="386.739" x2="416.679" y1="175.156" y2="115.275"><stop offset="0" stop-color="#a8d3d8" stop-opacity="0"></stop><stop offset="1" stop-color="#7ca1b1"></stop></linearGradient><linearGradient id="SVGID_00000149339924282509576150000004501170758531165355_" gradientTransform="matrix(1 0 0 -1 0 514)" gradientUnits="userSpaceOnUse" x1="398.155" x2="394.353" xlink:href="#lg8" y1="150.881" y2="175.118"></linearGradient><g><path d="m397.68 414.217c-4.143 0-7.5-3.358-7.5-7.5v-238.952c0-28.397-23.103-51.5-51.5-51.5s-51.5 23.103-51.5 51.5v66.321c0 39.436-32.084 71.52-71.521 71.52s-71.521-32.084-71.521-71.52v-19.287c0-4.142 3.357-7.5 7.5-7.5s7.5 3.358 7.5 7.5v19.287c0 31.165 25.355 56.52 56.521 56.52s56.521-25.355 56.521-56.52v-66.321c0-36.668 29.832-66.5 66.5-66.5s66.5 29.832 66.5 66.5v238.952c0 4.142-3.358 7.5-7.5 7.5z" fill="url(#SVGID_1_)"></path><path d="m338.68 101.265c-1.121 0-2.235.03-3.343.085v15.036c1.106-.071 2.219-.12 3.343-.12 28.397 0 51.5 23.103 51.5 51.5v98.518h15v-98.518c0-36.669-29.832-66.501-66.5-66.501z" fill="url(#SVGID_00000112605734750682386020000015566694897501863848_)"></path><path d="m390.18 169.824h15v83.253h-15z" fill="url(#SVGID_00000071523760772085041980000001981244041361349259_)"></path><path d="m272.18 226.96v7.126c0 31.165-25.355 56.52-56.521 56.52s-56.521-25.355-56.521-56.52v-7.126h-15v7.126c0 39.436 32.084 71.52 71.521 71.52s71.521-32.084 71.521-71.52v-7.126z" fill="url(#SVGID_00000005252745194498664230000003397333936543795389_)"></path><path d="m183.414 280.466c-14.658-10.222-24.275-27.195-24.275-46.38v-7.126h-15v7.126c0 27.839 15.999 51.996 39.275 63.807z" fill="url(#SVGID_00000131333831615778153570000001681296072242245026_)"></path><g><path d="m388.797 216.572h17.766c4.48 0 8.111 3.632 8.111 8.111v150.285c0 4.48-3.632 8.111-8.111 8.111h-17.766c-4.48 0-8.111-3.632-8.111-8.111v-150.285c-.001-4.48 3.631-8.111 8.111-8.111z" fill="url(#SVGID_00000070820819282274580360000014454719450603983756_)"></path><path d="m393.697 254.076h7.965c4.586 0 8.303 3.717 8.303 8.303v74.894c0 4.586-3.717 8.303-8.303 8.303h-7.965c-4.586 0-8.303-3.717-8.303-8.303v-74.894c0-4.586 3.718-8.303 8.303-8.303z" fill="url(#SVGID_00000090293640235241171690000001572124784337958072_)"></path><path d="m406.562 216.572h-16.382v166.508h16.383c4.48 0 8.111-3.632 8.111-8.111v-150.286c0-4.48-3.632-8.111-8.112-8.111z" fill="url(#SVGID_00000085229512543396678220000000726114755650478508_)"></path></g><path d="m165.826 259.843h-18.956c-4.328 0-8.055-3.056-8.901-7.301l-4.121-20.667h45l-4.121 20.667c-.847 4.244-4.573 7.301-8.901 7.301z" fill="url(#SVGID_00000017491997311359255400000013502739465351560350_)"></path><path d="m165.826 259.843h-18.956c-4.328 0-8.055-3.056-8.901-7.301l-4.121-20.667h45l-4.121 20.667c-.847 4.244-4.573 7.301-8.901 7.301z" fill="url(#SVGID_00000103962465285139338660000015867637236067866496_)"></path><path d="m165.826 259.843h-18.956c-4.328 0-8.055-3.056-8.901-7.301l-4.121-20.667h45l-4.121 20.667c-.847 4.244-4.573 7.301-8.901 7.301z" fill="url(#SVGID_00000047765753035696803290000001318516720964504997_)"></path><path d="m165.826 259.843h-18.956c-4.328 0-8.055-3.056-8.901-7.301l-4.121-20.667h45l-4.121 20.667c-.847 4.244-4.573 7.301-8.901 7.301z" fill="url(#SVGID_00000133526110724326573690000010543902778909448380_)"></path><path d="m79.918 0h152.86c12.048 0 21.815 9.767 21.815 21.815v202.118c0 12.048-9.767 21.815-21.815 21.815h-152.86c-12.048 0-21.815-9.767-21.815-21.815v-202.118c-.001-12.048 9.767-21.815 21.815-21.815z" fill="url(#SVGID_00000003824604856596438130000004389422173518370692_)"></path><path d="m232.777 0h-76.43v245.748h76.43c12.048 0 21.815-9.767 21.815-21.815v-202.118c.001-12.048-9.766-21.815-21.815-21.815z" fill="url(#SVGID_00000119090537041140860410000006537649918468282273_)"></path><path d="m58.103 145.874v78.059c0 12.048 9.767 21.815 21.815 21.815h152.86c12.048 0 21.815-9.767 21.815-21.815v-78.059z" fill="url(#SVGID_00000054253946822921151350000012670151832805215912_)"></path><path d="m89.717 17.749h133.261c6.854 0 12.41 5.556 12.41 12.41v74.035c0 6.854-5.556 12.41-12.41 12.41h-133.261c-6.854 0-12.41-5.556-12.41-12.41v-74.035c0-6.854 5.556-12.41 12.41-12.41z" fill="url(#SVGID_00000172414644897828734670000004948624431318631579_)"></path><path d="m222.978 17.749h-133.261c-6.854 0-12.411 5.556-12.411 12.41v51.966h158.082v-51.966c0-6.854-5.556-12.41-12.41-12.41z" fill="url(#SVGID_00000003783344089037588720000006027329795391197083_)"></path><path d="m189.527 45.517-48.53 48.53-9.558 3.054 19.503 19.503h72.035c6.854 0 12.41-5.556 12.41-12.41v-12.816z" fill="url(#SVGID_00000144335228360056243950000012843589056888460932_)"></path><path d="m154.987 30.838 22.969 22.969-10.517 10.517-12.175-12.175z" fill="url(#SVGID_00000115474468936845074830000011559890197977118640_)"></path><path d="m151.639 17.749h-61.922c-6.854 0-12.411 5.556-12.411 12.41v74.035c0 6.854 5.556 12.41 12.411 12.41h61.922z" fill="url(#SVGID_00000035517118310461044740000008236020299489128115_)"></path><g><g><circle cx="156.348" cy="191.216" fill="url(#SVGID_00000113342149991429694080000007289464270385491359_)" r="32.072"></circle><path d="m133.669 168.538c-12.525 12.525-12.525 32.832 0 45.357s32.832 12.525 45.357 0c.627-.627 1.221-1.274 1.785-1.938l-45.204-45.204c-.664.564-1.311 1.158-1.938 1.785z" fill="url(#SVGID_00000052822183655824849170000015340625448090955648_)"></path><path d="m179.026 168.538c-1.461-1.461-3.029-2.749-4.677-3.869l-44.549 44.549c1.12 1.648 2.408 3.216 3.869 4.677 12.525 12.525 32.832 12.525 45.357 0s12.525-32.832 0-45.357z" fill="url(#SVGID_00000100358012141581075170000013503629063141697983_)"></path><path d="m188.418 191.028h-64.14c-.049 8.271 3.081 16.557 9.391 22.867 12.525 12.525 32.832 12.525 45.357 0 6.311-6.311 9.44-14.597 9.392-22.867z" fill="url(#SVGID_00000137811090948616831330000014504638000465294727_)"></path></g><path d="m134.955 215.109c12.593 11.294 31.966 10.891 44.071-1.214s12.508-31.479 1.214-44.071z" fill="url(#SVGID_00000103986815495154632750000014176259541151116449_)"></path><path d="m178.504 165.047 4.014 4.014c2.627 2.627 2.627 6.886 0 9.513l-38.813 38.813c-2.627 2.627-6.886 2.627-9.513 0l-4.014-4.014c-2.627-2.627-2.627-6.886 0-9.513l38.813-38.813c2.627-2.627 6.886-2.627 9.513 0z" fill="url(#SVGID_00000177468567977936279370000003734464913937458348_)"></path></g><g><g><g><path d="m180.811 76.652c0 15.971-12.948 28.919-28.924 28.919-15.971 0-28.919-12.948-28.919-28.919 0-3.9 1.16-8.385 3.053-12.939 2.171-5.221 5.674-9.78 10.073-13.333l.001-.001c4.427-3.575 7.901-8.189 10.113-13.431l2.579-6.111c1.157-2.741 5.041-2.741 6.198 0l2.578 6.108c2.213 5.244 5.689 9.859 10.117 13.435 4.401 3.554 7.908 8.116 10.079 13.34 1.893 4.551 3.052 9.034 3.052 12.932z" fill="url(#SVGID_00000067213507261670084650000013398129887504609161_)"></path><path d="m126.022 63.714c-1.893 4.553-3.053 9.039-3.053 12.939 0 15.971 12.948 28.919 28.918 28.919 15.976 0 28.924-12.948 28.924-28.919 0-3.899-1.16-8.381-3.051-12.932-.732-1.761-1.619-3.445-2.637-5.042h-46.468c-1.016 1.595-1.902 3.276-2.633 5.035z" fill="url(#SVGID_00000123404161046508194680000018039321235240955054_)"></path></g><path d="m167.682 50.381c-4.429-3.576-7.904-8.191-10.118-13.435l-2.578-6.108c-1.157-2.741-5.041-2.741-6.198 0l-2.579 6.111c-.326.773-.689 1.528-1.069 2.272v65.55c2.166.518 4.423.8 6.747.8 15.976 0 28.924-12.948 28.924-28.918 0-3.899-1.16-8.381-3.051-12.932-2.17-5.224-5.676-9.787-10.078-13.34z" fill="url(#SVGID_00000025438914742639144270000012334743715388716188_)"></path><path d="m180.811 76.652c0 15.971-12.948 28.919-28.924 28.919-15.971 0-28.919-12.948-28.919-28.919 0-3.9 1.16-8.385 3.053-12.939 2.171-5.221 5.674-9.78 10.073-13.333l.001-.001c4.427-3.575 7.901-8.189 10.113-13.431l2.579-6.111c1.157-2.741 5.041-2.741 6.198 0l2.578 6.108c2.213 5.244 5.689 9.859 10.117 13.435 4.401 3.554 7.908 8.116 10.079 13.34 1.893 4.551 3.052 9.034 3.052 12.932z" fill="url(#SVGID_00000025432500862361069170000010332337247485715868_)"></path><path d="m174.714 58.05-28.205 28.205 16.917 16.917c10.231-4.456 17.385-14.65 17.385-26.52 0-3.899-1.16-8.381-3.051-12.932-.828-1.993-1.853-3.888-3.046-5.67z" fill="url(#SVGID_00000160149462365346337080000010845306911207376519_)"></path></g><path d="m151.815 88.454c-1.924 0-3.844-.735-5.307-2.199l-14.267-14.278c-2.928-2.93-2.926-7.679.005-10.606 2.93-2.929 7.679-2.925 10.606.004l9.125 9.133 26.947-25.321c3.016-2.835 7.764-2.689 10.602.33 2.836 3.019 2.688 7.765-.33 10.602l-32.246 30.3c-1.445 1.358-3.291 2.035-5.135 2.035z" fill="url(#SVGID_00000034780565577743440250000004696326267233249683_)"></path></g><path d="m84.059 129.874h21.118c3.729 0 6.752 3.023 6.752 6.752v2.496c0 3.729-3.023 6.752-6.752 6.752h-21.118c-3.729 0-6.752-3.023-6.752-6.752v-2.496c0-3.729 3.023-6.752 6.752-6.752z" fill="url(#SVGID_00000134938202419415021500000004277383561360510352_)"></path><path d="m145.789 129.874h21.118c3.729 0 6.752 3.023 6.752 6.752v2.496c0 3.729-3.023 6.752-6.752 6.752h-21.118c-3.729 0-6.752-3.023-6.752-6.752v-2.496c0-3.729 3.023-6.752 6.752-6.752z" fill="url(#SVGID_00000125590304342413783950000010281964105321959822_)"></path><path d="m207.519 129.874h21.118c3.729 0 6.752 3.023 6.752 6.752v2.496c0 3.729-3.023 6.752-6.752 6.752h-21.118c-3.729 0-6.752-3.023-6.752-6.752v-2.496c0-3.729 3.023-6.752 6.752-6.752z" fill="url(#SVGID_00000103241822280116355940000011775922966760039074_)"></path><g><circle cx="220.799" cy="208.699" fill="url(#SVGID_00000074434696976525251790000004628320409563463357_)" r="14.59"></circle><path d="m206.209 208.699c0 8.058 6.532 14.59 14.59 14.59s14.59-6.532 14.59-14.59c0-.403-.017-.803-.049-1.198h-29.081c-.033.395-.05.795-.05 1.198z" fill="url(#SVGID_00000093896311674728837170000005590226880253342092_)"></path><path d="m220.799 194.109c-.94 0-1.859.09-2.749.26v28.66c.89.17 1.809.26 2.749.26 8.058 0 14.59-6.532 14.59-14.59-.001-8.058-6.533-14.59-14.59-14.59z" fill="url(#SVGID_00000134236994128407088570000009709105075099827634_)"></path><path d="m231.054 198.322-20.632 20.632c2.645 2.676 6.317 4.335 10.377 4.335 8.058 0 14.59-6.532 14.59-14.59-.001-4.06-1.659-7.732-4.335-10.377z" fill="url(#SVGID_00000119831993824438185640000002460973957367526793_)"></path></g><g><circle cx="91.897" cy="208.699" fill="url(#SVGID_00000111878785414038230700000012623523343652542641_)" r="14.59"></circle><path d="m77.307 208.699c0 8.058 6.532 14.59 14.59 14.59s14.59-6.532 14.59-14.59c0-.403-.017-.803-.049-1.198h-29.082c-.032.395-.049.795-.049 1.198z" fill="url(#SVGID_00000144305210564171075500000016156504940470793111_)"></path><path d="m91.897 194.109c-.94 0-1.859.09-2.749.26v28.66c.89.17 1.809.26 2.749.26 8.058 0 14.59-6.532 14.59-14.59-.001-8.058-6.533-14.59-14.59-14.59z" fill="url(#SVGID_00000029008620421730289160000016692952442871568544_)"></path><path d="m102.152 198.322-20.632 20.632c2.645 2.676 6.317 4.335 10.377 4.335 8.058 0 14.59-6.532 14.59-14.59-.001-4.06-1.659-7.732-4.335-10.377z" fill="url(#SVGID_00000000195566391538181580000001983827380073890488_)"></path></g><g><path d="m512 364.124v130.596c0 9.543-7.737 17.28-17.28 17.28h-477.44c-9.543 0-17.28-7.737-17.28-17.28v-130.596c0-11.18 12.49-18.025 21.769-11.789.067.045.134.09.201.136 7.85 5.33 16.93 7.99 26.01 7.99 9.07 0 18.15-2.66 26-7.99s16.92-7.99 26-7.99 18.15 2.66 26 7.99 16.93 7.99 26 7.99c9.08 0 18.16-2.66 26.01-7.99s16.93-7.99 26.01-7.99c9.07 0 18.15 2.66 26 7.99s16.92 7.99 26 7.99 18.15-2.66 26-7.99 16.93-7.99 26-7.99c9.08 0 18.16 2.66 26.01 7.99s16.93 7.99 26.01 7.99c9.07 0 18.15-2.66 26-7.99s16.92-7.99 26-7.99 18.15 2.66 26 7.99 16.93 7.99 26 7.99c9.08 0 18.16-2.66 26.01-7.99.067-.045.134-.091.201-.136 9.279-6.236 21.769.609 21.769 11.789z" fill="url(#SVGID_00000116954789404089672660000015094187517035956384_)"></path><path d="m490.231 386.919c-.067.045-.134.09-.201.136-7.85 5.33-16.93 7.99-26.01 7.99-9.07 0-18.15-2.66-26-7.99s-16.92-7.99-26-7.99-18.15 2.66-26 7.99-16.93 7.99-26 7.99c-9.08 0-18.16-2.66-26.01-7.99s-16.93-7.99-26.01-7.99c-9.07 0-18.15 2.66-26 7.99s-16.92 7.99-26 7.99-18.15-2.66-26-7.99-16.93-7.99-26-7.99c-9.08 0-18.16 2.66-26.01 7.99s-16.93 7.99-26.01 7.99c-9.07 0-18.15-2.66-26-7.99s-16.92-7.99-26-7.99-18.15 2.66-26 7.99-16.93 7.99-26 7.99c-9.08 0-18.16-2.66-26.01-7.99-.067-.045-.134-.091-.201-.136-9.279-6.235-21.769.61-21.769 11.79v96.011c0 9.543 7.737 17.28 17.28 17.28h477.44c9.543 0 17.28-7.737 17.28-17.28v-96.011c0-11.18-12.491-18.025-21.769-11.79z" fill="url(#SVGID_00000096743881498253999380000000611959199677905294_)"></path><path d="m21.769 426.272c.067.045.134.09.201.136 7.85 5.33 16.93 7.99 26.01 7.99 9.07 0 18.15-2.66 26-7.99s16.92-7.99 26-7.99 18.15 2.66 26 7.99 16.93 7.99 26 7.99c9.08 0 18.16-2.66 26.01-7.99s16.93-7.99 26.01-7.99c9.07 0 18.15 2.66 26 7.99s16.92 7.99 26 7.99 18.15-2.66 26-7.99 16.93-7.99 26-7.99c9.08 0 18.16 2.66 26.01 7.99s16.93 7.99 26.01 7.99c9.07 0 18.15-2.66 26-7.99s16.92-7.99 26-7.99 18.15 2.66 26 7.99 16.93 7.99 26 7.99c9.08 0 18.16-2.66 26.01-7.99.067-.045.134-.091.201-.136 9.279-6.236 21.769.61 21.769 11.79v56.658c0 9.543-7.737 17.28-17.28 17.28h-477.44c-9.543 0-17.28-7.737-17.28-17.28v-56.658c0-11.18 12.491-18.025 21.769-11.79z" fill="url(#SVGID_00000068678383519844673770000017640898457647695267_)"></path><path d="m21.769 426.272c.067.045.134.09.201.136 7.85 5.33 16.93 7.99 26.01 7.99 9.07 0 18.15-2.66 26-7.99s16.92-7.99 26-7.99 18.15 2.66 26 7.99 16.93 7.99 26 7.99c9.08 0 18.16-2.66 26.01-7.99s16.93-7.99 26.01-7.99c9.07 0 18.15 2.66 26 7.99s16.92 7.99 26 7.99 18.15-2.66 26-7.99 16.93-7.99 26-7.99c9.08 0 18.16 2.66 26.01 7.99s16.93 7.99 26.01 7.99c9.07 0 18.15-2.66 26-7.99s16.92-7.99 26-7.99 18.15 2.66 26 7.99 16.93 7.99 26 7.99c9.08 0 18.16-2.66 26.01-7.99.067-.045.134-.091.201-.136 9.279-6.236 21.769.61 21.769 11.79v56.658c0 9.543-7.737 17.28-17.28 17.28h-477.44c-9.543 0-17.28-7.737-17.28-17.28v-56.658c0-11.18 12.491-18.025 21.769-11.79z" fill="url(#SVGID_00000039813172384959211170000013217099674016677529_)"></path><path d="m490.231 352.334c-.067.045-.134.09-.201.136-7.85 5.33-16.93 7.99-26.01 7.99-9.07 0-18.15-2.66-26-7.99s-16.92-7.99-26-7.99-18.15 2.66-26 7.99-16.93 7.99-26 7.99c-9.08 0-18.16-2.66-26.01-7.99-.94-.638-1.898-1.236-2.871-1.797v161.327h163.581c9.543 0 17.28-7.737 17.28-17.28v-130.596c0-11.18-12.491-18.025-21.769-11.79z" fill="url(#SVGID_00000123438323770332492590000013576296851203854777_)"></path></g><path d="m388.797 383.08h17.766c4.48 0 8.111-3.632 8.111-8.111v-30.405c-.884-.051-1.768-.083-2.654-.083-9.08 0-18.15 2.66-26 7.99-1.722 1.169-3.507 2.203-5.335 3.115v19.383c0 4.479 3.632 8.111 8.112 8.111z" fill="url(#SVGID_00000009581526596817782220000015156597424291675796_)"></path><path d="m388.797 383.08h17.766c4.48 0 8.111-3.632 8.111-8.111v-30.405c-.884-.051-1.768-.083-2.654-.083-9.08 0-18.15 2.66-26 7.99-1.722 1.169-3.507 2.203-5.335 3.115v19.383c0 4.479 3.632 8.111 8.112 8.111z" fill="url(#SVGID_00000149339924282509576150000004501170758531165355_)"></path></g></svg>