<svg xmlns="http://www.w3.org/2000/svg" id="Capa_1" viewBox="0 0 512 512"><g><path d="m71.765 256-7.765 112h384l-7.765-112-184.231-41.207z" fill="#c8effe"></path><path d="m440.235 256-52.842-11.819c-30.541 52.173-87.177 87.215-151.997 87.215h-.001c-61.409 0-115.473-31.451-146.962-79.124l-16.668 3.728-7.765 112h384z" fill="#99e6fc"></path><path d="m432 137.211c-17.304-2.65-22.463-9.211-48-9.211-31.999 0-31.999 10.302-63.997 10.302-32 0-32-10.302-63.999-10.302-32.001 0-32.001 10.302-64.002 10.302s-32.001-10.302-64.002-10.302c-25.537 0-30.696 6.56-48 9.211l-8.235 118.789h368.471z" fill="#62dbfb"></path><path d="m411.396 155.396c0 37.408-11.671 72.09-31.57 100.604h60.409l-8.235-118.789c-8.518-1.305-14.093-3.556-20.604-5.507z" fill="#01d0fb"></path><path d="m292 60c0 19.882-16.118 36-36 36s-36-16.118-36-36c0-13.732 13.081-37.117 24-50.27 4.89-5.891 9.346-9.73 12-9.73 2.654 0 7.11 3.839 12 9.73 10.919 13.153 24 36.538 24 50.27z" fill="#62dbfb"></path><path d="m268 9.73c-4.646-5.597-8.9-9.34-11.589-9.701 8.436 12.869 16.015 28.915 16.015 39.367 0 19.882-16.118 36-36 36-5.044 0-9.844-1.038-14.202-2.91 5.077 13.728 18.284 23.514 33.776 23.514 19.882 0 36-16.118 36-36 0-13.732-13.081-37.117-24-50.27z" fill="#01d0fb"></path><path d="m432 90.302v85.698c0 97.202-78.798 176-176 176-97.202 0-176-78.798-176-176v-85.698c0-5.69-4.612-10.302-10.302-10.302h-59.396c-5.69 0-10.302 4.612-10.302 10.302v309.698l80 32h352l80-32v-309.698c0-5.69-4.612-10.302-10.302-10.302h-59.396c-5.69 0-10.302 4.612-10.302 10.302z" fill="#e19974"></path><path d="m501.698 80h-10.302v328.241l20.604-8.241v-309.698c0-5.69-4.612-10.302-10.302-10.302z" fill="#dc8758"></path><path d="m512 400c-42.665 0-42.665 20.604-85.331 20.604s-42.666-20.604-85.332-20.604c-42.665 0-42.665 20.604-85.331 20.604-42.667 0-42.666-20.604-85.333-20.604-42.668 0-42.668 20.604-85.337 20.604-42.668 0-42.668-20.604-85.336-20.604v101.698c0 5.69 4.612 10.302 10.302 10.302h491.396c5.69 0 10.302-4.612 10.302-10.302z" fill="#62dbfb"></path><path d="m491.396 402.018v79.076c0 5.69-4.612 10.302-10.302 10.302h-481.094v10.302c0 5.69 4.612 10.302 10.302 10.302h491.396c5.69 0 10.302-4.612 10.302-10.302v-101.698c-8.261 0-14.922.773-20.604 2.018z" fill="#01d0fb"></path><g fill="#f37c7c"><path d="m192 263.726h-16c-4.268 0-7.726-3.459-7.726-7.726s3.459-7.726 7.726-7.726h16c4.268 0 7.726 3.459 7.726 7.726s-3.458 7.726-7.726 7.726z"></path><path d="m148.777 263.726h-16c-4.268 0-7.726-3.459-7.726-7.726s3.459-7.726 7.726-7.726h16c4.268 0 7.726 3.459 7.726 7.726s-3.459 7.726-7.726 7.726z"></path><path d="m379.223 263.726h-16c-4.268 0-7.726-3.459-7.726-7.726s3.459-7.726 7.726-7.726h16c4.268 0 7.726 3.459 7.726 7.726s-3.458 7.726-7.726 7.726z"></path><path d="m240 263.726h-16c-4.268 0-7.726-3.459-7.726-7.726s3.459-7.726 7.726-7.726h16c4.268 0 7.726 3.459 7.726 7.726s-3.458 7.726-7.726 7.726z"></path><path d="m288 263.726h-16c-4.268 0-7.726-3.459-7.726-7.726s3.459-7.726 7.726-7.726h16c4.268 0 7.726 3.459 7.726 7.726s-3.458 7.726-7.726 7.726z"></path><path d="m336 263.726h-16c-4.268 0-7.726-3.459-7.726-7.726s3.459-7.726 7.726-7.726h16c4.268 0 7.726 3.459 7.726 7.726s-3.458 7.726-7.726 7.726z"></path></g><g><g><path d="m320.003 194.028c-17.213 0-25.934-2.808-34.368-5.523-7.634-2.458-14.844-4.779-29.631-4.779-4.268 0-7.726-3.459-7.726-7.726s3.459-7.726 7.726-7.726c17.212 0 25.934 2.808 34.366 5.522 7.635 2.458 14.846 4.78 29.633 4.78 14.786 0 21.996-2.321 29.63-4.779 8.434-2.715 17.155-5.523 34.367-5.523 4.268 0 7.726 3.459 7.726 7.726s-3.459 7.726-7.726 7.726c-14.787 0-21.997 2.322-29.631 4.78-8.433 2.714-17.154 5.522-34.366 5.522z" fill="#99e6fc"></path></g></g><path d="m421.518 471.726c-23.101 0-35.281-5.881-46.026-11.07-10.152-4.902-19.74-9.533-39.306-9.533-4.268 0-7.726-3.459-7.726-7.726 0-4.268 3.459-7.726 7.726-7.726 23.101 0 35.281 5.881 46.026 11.07 10.152 4.902 19.74 9.533 39.306 9.533 19.565 0 29.154-4.631 39.306-9.533 3.605-1.74 7.331-3.54 11.532-5.169 3.977-1.54 8.454.432 9.997 4.411 1.542 3.978-.433 8.454-4.411 9.997-3.624 1.404-6.914 2.994-10.398 4.676-10.746 5.189-22.925 11.07-46.026 11.07z" fill="#99e6fc"></path><g><g><g><g><circle cx="48" cy="256" fill="#dc8758" r="7.726"></circle></g></g></g></g><g><g><g><circle cx="96" cy="320" fill="#dc8758" r="7.726"></circle></g></g></g><g><g><g><g><circle cx="32" cy="368" fill="#dc8758" r="7.726"></circle></g></g></g></g><g><g><g><g><circle cx="400" cy="368" fill="#dc8758" r="7.726"></circle></g></g></g></g><g><g><g><g><circle cx="475.879" cy="352" fill="#dc8758" r="7.726"></circle></g></g></g></g><g><g><g><g><circle cx="464" cy="273.359" fill="#dc8758" r="7.726"></circle></g></g></g></g></g><g></g><g></g><g></g><g></g><g></g><g></g><g></g><g></g><g></g><g></g><g></g><g></g><g></g><g></g><g></g></svg>