<svg xmlns="http://www.w3.org/2000/svg" id="Layer_1" height="512" viewBox="0 0 53 53" width="512"><g id="_x36_8"><g><g><g><path d="m9.633709 38.0784607h-3.4744826c-1.0963192 0-1.9880166-.8921509-1.9880166-1.988472v-2.0334892c0-.5142822.4169741-.9312553.9312577-.9312553s.9312577.4169731.9312577.9312553v2.0334892c0 .0695724.0563846.1259575.1255012.1259575h3.4744826c.5142841 0 .9312582.4169731.9312582.9312592 0 .5142822-.4169741.9312553-.9312582.9312553z" fill="#00c179"></path></g></g><g><g><path d="m9.633709 39.4178352h-3.4744826c-1.0963192 0-1.9880166.8921509-1.9880166 1.988472v2.0334892c0 .5142822.4169741.9312553.9312577.9312553s.9312577-.4169731.9312577-.9312553v-2.0334892c0-.0695724.0563846-.1259575.1255012-.1259575h3.4744826c.5142841 0 .9312582-.4169731.9312582-.9312592 0-.5142822-.4169741-.9312553-.9312582-.9312553z" fill="#f05543"></path></g></g></g><g><path d="m48.8144951 6.4917569-3.1766739 37.6248322c-.2858582 3.569725-3.2490082 6.282753-6.8187332 6.282753h-23.3457108c-3.569726 0-6.5324411-2.713028-6.8182983-6.282753l-3.1766725-37.6248322c-.1786604-2.1062341 1.4990058-3.8910971 3.6054578-3.8910971h36.1251698c2.1421852 0 3.7841186 1.784863 3.6054611 3.8910971z" fill="#e4e3ff"></path></g><g><path d="m48.8152122 6.495214-3.1799316 37.6200562c-.2800293 3.5699463-3.25 6.2799683-6.8200684 6.2799683h-23.3398447c-2.5200195 0-4.7301025-1.3499756-5.9101563-3.3900146 1.0100098.6000366 2.2000732.9400024 3.4500732.9400024h23.3499756c3.5700684 0 6.5300293-2.7099609 6.8200684-6.2799683l3.1799327-37.630005c.0400391-.4500122-.0100098-.8800049-.1298828-1.2900391 1.619873.4700318 2.7299804 1.9900514 2.5798339 3.7500001z" fill="#d0d0f7"></path></g><g><path d="m43.3952904 8.975256c-.6500244 4.1499634-2.4399414 16.2699585-2.4099121 24.5100079 0 1.4400024-1.0300293 2.6900024-2.4400635 2.9400024-1.460083.25-2.9300537.4599609-4.3900146.6099854-4.6799335.5-9.3499775.5-14.0200214 0-1.4599609-.1500244-2.9199219-.3599854-4.3800039-.6099854-1.4200439-.25-2.4499512-1.5-2.4499512-2.9400024.0299072-8.2400494-1.75-20.3600445-2.4000244-24.5100079-.1300049-.7800293.4799805-1.4600224 1.2700195-1.4600224h29.9499512c.7800301-.0000001 1.3900155.6799931 1.2700204 1.4600224z" fill="#7979f7"></path></g><g opacity=".3"><g><path d="m14.1767836 25.3185787c-.1865234-2.2558594-.4423828-4.7319336-.7607422-7.3588867-.0498047-.4111328.2431641-.7851563.6542969-.8349609.409668-.0439453.7851563.2431641.8349609.6542969.3208008 2.6459961.5786133 5.1416016.7666016 7.4160156.0341797.4130859-.2729492.7753906-.6860352.8095703-.4325991.030899-.7758427-.2876511-.809082-.6860352z" fill="#fff"></path></g></g><g><path d="m43.3952904 8.975256c-.6500244 4.1499634-2.4399414 16.2699585-2.4099121 24.5100079 0 1.4400024-1.0300293 2.6900024-2.4400635 2.9400024-7.5999775 1.3199463-15.2000751 1.3199463-22.7900391 0-1.2099609-.210022-2.1300049-1.1500244-2.3800049-2.3099976.0300293.0099487.0600586.0099487.0900879.0199585 7.5998526 1.3200073 15.1999502 1.3200073 22.789917 0 1.4200439-.2399902 2.4500732-1.4899902 2.4500732-2.9299908-.0300293-7.7600098 1.5499268-18.9400024 2.2800293-23.6900024h1.1398926c.7800293-.0000005 1.3900147.6799927 1.2700196 1.460022z" fill="#5e5eef"></path></g><g><path d="m34.1553001 37.0352516c-4.6799335.5-9.3499775.5-14.0200214 0l1.0200195-20.4100323c.0500488-.8399658.7399902-1.5 1.5800781-1.5h8.8199463c.8399677 0 1.5299091.6600342 1.579958 1.5z" fill="#a2a2f9"></path></g><g><g><g><path d="m27.4104748 33.1995239c-.3975163 0-.7191811-.3216667-.7191811-.7191811v-.8146992l-3.2377205-1.5851479c-.356781-.1748791-.5042706-.6054058-.3300934-.9621868.1748791-.3560791.604702-.5035667.9621868-.3300934l3.5287476 1.7276173c.3153305.1543808.5152416.4748383.5152416.8259315v1.1385784c0 .3975145-.3216648.7191812-.719181.7191812z" fill="#474646"></path></g></g><g><path d="m30.0287457 33.3723831v5.9548416c0 .4889946-.3883877.8773804-.8775558.8773804h-3.4663296c-.4891682 0-.8919525-.3883858-.8919525-.8773804v-5.9548416c0-.4890823.4027843-.891777.8919525-.891777h3.4663296c.4891681 0 .8775558.4026947.8775558.891777z" fill="#2d2c2c"></path></g><g><path d="m30.0252934 33.3752174v5.9500122c0 .4899902-.3800049.8800049-.8699951.8800049h-3.4699707c-.4899902 0-.8900146-.3900146-.8900146-.8800049v-.2999878h3.1700439c.4899902 0 .8798828-.3900146.8798828-.8800049v-5.6599731h.3100586c.4899902 0 .8699951.3999634.8699951.8899536z" fill="#1b1b1b"></path></g><g><path d="m29.0217857 40.2046051v1.9130478c0 .3307953-.2588081.5896912-.5896034.5896912h-2.0425377c-.3307953 0-.589777-.2588959-.589777-.5896912v-1.9130478z" fill="#474646"></path></g></g><g><g><path d="m30.3402348 8.4152584c0 1.7600098-1.4299316 3.1900024-3.1999512 3.1900024-1.7600098 0-3.1899414-1.4299927-3.1899414-3.1900024s1.4299316-3.1900029 3.1899414-3.1900029c1.7700195 0 3.1999512 1.4299927 3.1999512 3.1900029z" fill="#f9b938"></path></g><g><path d="m30.3352299 8.4152584c0 1.7600098-1.4199219 3.1900024-3.1899414 3.1900024-1.0100098 0-1.9099121-.4700317-2.4899902-1.2000122.5400391.4400024 1.2399902.7000122 1.9899902.7000122 1.7700195 0 3.1999512-1.4299927 3.1999512-3.1900029 0-.7399902-.25-1.4200439-.6699219-1.960022.7099609.5800171 1.1599121 1.4700318 1.1599121 2.4600225z" fill="#ecb021"></path></g><g><path d="m27.1384239 9.9633446c-.8531303 0-1.547451-.6943207-1.547451-1.5480862 0-.8537664.6943207-1.5480866 1.547451-1.5480866.860754 0 1.5614262.6943202 1.5614262 1.5480866 0 .8537655-.7006722 1.5480862-1.5614262 1.5480862z" fill="#e4e3ff"></path></g></g><g opacity=".5"><g><g><path d="m10.2234163 20.6852684.7137585 7.3897762c.0448856.4737988-.3117714.8900928-.7720995.9337025-.4737978.0448856-.8901005-.3118534-.9337025-.7720985l-.7137585-7.3897762c-.0448933-.4738808.2983027-.8888168.7720995-.9337025.3249817-.0307884.6123495.1195679.7856913.3625965.0792198.115467.1338968.2605209.1480112.409502z" fill="#fff"></path></g><g><path d="m8.2931986 18.4780388-.1000423-1.0560036c-.043602-.4602451.2983027-.8888168.7720995-.9337025.5030851-.0476608.8934097.3467941.9337015.7721004l.1000433 1.0560036c.0448856.4737968-.2982206.8888073-.7720995.9337025-.4737978.0448857-.8888159-.2983036-.9337025-.7721004z" fill="#fff"></path></g></g></g><g opacity=".5"><g><g><path d="m19.6456757 5.6133051-7.4241066-.0300794c-.4759102-.0028009-.8543844-.3993649-.8516626-.8617468.0028009-.4759102.3994474-.8543835.8617468-.8516629l7.4241047.0300796c.4759941.0028012.8544636.3858361.8516636.8617468-.002802.4760228-.3875772.8544531-.8617459.8516627z" fill="#fff"></path></g><g><path d="m22.0351563 3.9138987 1.0607128.0062423c.4622993.0027208.8544655.3858364.8516636.8617465-.0029736.5053291-.4345436.854177-.8617458.8516631l-1.0607147-.0062423c-.4759102-.0028009-.8544636-.3857536-.8516617-.8617468.0027999-.4759101.3858356-.8544637.8617458-.8516628z" fill="#fff"></path></g></g></g></g></svg>